<?xml version="1.0" encoding="UTF-8" standalone="no"?>
<svg width="16px" height="18px" viewBox="0 0 16 18" version="1.1" xmlns="http://www.w3.org/2000/svg" xmlns:xlink="http://www.w3.org/1999/xlink">
    <!-- Generator: Sketch 39.1 (31720) - http://www.bohemiancoding.com/sketch -->
    <title>Slice 1</title>
    <desc>Created with Sketch.</desc>
    <defs></defs>
    <g id="Page-1" stroke="none" stroke-width="1" fill="none" fill-rule="evenodd">
        <g id="SnapApp-Icon-2015-white" fill="#FFFFFF">
            <g id="Group">
                <g id="Shape">
                    <path d="M11.9,4.5 L6.8,4.5 L6.3,6.7 L11.7,6.7 C12.3,6.7 12.6,7.1 12.4,7.9 L11.7,11 C11.4,12.1 11.1,12.5 9.9,12.5 L7.1,12.5 C6.9,12.5 6.6,12.6 6.4,12.7 L4.8,14.4 L4.9,13.6 C4.9,13.3 4.9,13 4.7,12.8 C4.5,12.6 4.2,12.5 3.9,12.5 L0.7,12.5 L0.2,14.7 L2.7,14.7 L2.4,16.8 C2.3,17.2 2.5,17.6 2.9,17.8 C3.1,17.9 3.2,17.9 3.4,17.9 C3.6,17.9 3.9,17.8 4.1,17.6 L7.4,14.6 L10.8,14.6 C12.9,14.6 13.3,12.6 13.6,11.3 L13.6,11.3 L14.4,7.4 C14.9,5.9 13.6,4.5 11.9,4.5"></path>
                    <path d="M4,7.5 L4.7,3.7 C4.8,3.1 5.1,2.5 5.8,2.5 L14.9,2.5 L15.4,0.3 L6.4,0.3 C4,0.3 3.1,1.5 2.8,3.3 L2,7.3 L2,7.5 C2,9.2 3.4,10.6 5.1,10.6 L9.4,10.6 L9.9,8.4 L5.1,8.4 C4.6,8.5 4,8 4,7.5"></path>
                </g>
            </g>
        </g>
    </g>
</svg>